<svg width="500" height="158" viewBox="0 0 500 158" fill="none" xmlns="http://www.w3.org/2000/svg"><path fill-rule="evenodd" clip-rule="evenodd" d="M211.753 65.53H185.481C185.894 71.37 189.591 74.2984 196.528 74.2984C200.959 74.2984 204.849 73.2519 208.208 71.159V80.13C204.495 82.1132 199.659 83.109 193.701 83.109C187.203 83.109 182.156 81.3115 178.561 77.6994C174.974 74.1043 173.176 69.0661 173.176 62.6269C173.176 55.943 175.109 50.6432 178.999 46.7358C182.882 42.8284 187.65 40.8874 193.313 40.8874C199.178 40.8874 203.727 42.6343 206.942 46.1113C210.149 49.5967 211.761 54.3396 211.761 60.3146V65.53H211.753ZM294.459 91.2445V94.5949H282.044V91.2445V84.1302V41.8494H294.459V47.9004H294.619C297.691 43.2166 302.003 40.8705 307.557 40.8705C312.781 40.8705 316.806 42.6512 319.65 46.2379C322.494 49.8077 323.921 54.6771 323.921 60.8462C323.921 67.5554 322.258 72.9397 318.941 77.0074C315.625 81.0752 311.211 83.1006 305.708 83.1006C300.864 83.1006 297.168 81.2186 294.619 77.4378H294.459V84.1302V91.2445ZM200.233 57.8925C200.233 52.1369 197.895 49.2507 193.22 49.2507C191.237 49.2507 189.506 50.0693 188.055 51.7234C186.595 53.3775 185.717 55.4451 185.396 57.9009H200.233V57.8925ZM277.647 82.1216H265.258V59.1584C265.258 53.31 263.106 50.39 258.811 50.39C256.768 50.39 255.106 51.2592 253.815 53.023C252.523 54.7868 251.882 56.9642 251.882 59.5888V82.1301H239.468V58.9221C239.468 53.2424 237.349 50.3984 233.13 50.3984C231.011 50.3984 229.307 51.2339 228.041 52.9049C226.766 54.5843 226.117 56.8629 226.117 59.7491V82.1301H213.702V41.8494H226.117V48.1451H226.277C227.568 46.0016 229.366 44.2377 231.687 42.8959C234.007 41.5372 236.548 40.8705 239.299 40.8705C244.987 40.8705 248.886 43.3685 250.979 48.373C254.051 43.3685 258.549 40.8705 264.507 40.8705C273.259 40.8705 277.639 46.2632 277.639 57.0739V82.1216H277.647ZM294.273 60.9306V64.1544C294.273 66.9394 294.999 69.2011 296.476 70.9649C297.936 72.7203 299.877 73.598 302.265 73.598C305.084 73.598 307.287 72.5093 308.839 70.3235C310.401 68.1378 311.194 65.0321 311.194 61.0234C311.194 53.9345 308.443 50.4069 302.923 50.4069C300.383 50.4069 298.307 51.3605 296.695 53.2931C295.075 55.2088 294.273 57.7575 294.273 60.9306ZM338.968 82.1216H326.554V22.7851H338.968V82.1216ZM363.181 83.1006C356.471 83.1006 351.188 81.2186 347.348 77.4631C343.508 73.7077 341.593 68.585 341.593 62.1459C341.593 55.4873 343.576 50.2634 347.568 46.5079C351.551 42.7524 356.952 40.8705 363.729 40.8705C370.413 40.8705 375.662 42.7524 379.46 46.5079C383.258 50.2634 385.165 55.251 385.165 61.437C385.165 68.1209 383.207 73.4123 379.283 77.2859C375.367 81.168 369.991 83.1006 363.181 83.1006ZM363.501 50.39C360.564 50.39 358.277 51.3942 356.657 53.4112C355.037 55.4367 354.21 58.2976 354.21 61.9855C354.21 69.7159 357.341 73.5811 363.577 73.5811C369.527 73.5811 372.506 69.6062 372.506 61.6733C372.506 54.1454 369.502 50.39 363.501 50.39ZM426.13 41.8494H413.817L406.238 66.433C405.605 68.45 405.175 70.2223 404.939 71.7498H404.778C404.525 69.6737 404.145 67.8677 403.681 66.3571L396.179 41.8579H382.389L397.715 79.5054C398.972 84.1892 392.87 87.5396 386.212 83.9107V93.8184C388.161 94.502 390.642 94.8396 393.647 94.8396C401.571 94.8396 406.517 93.9788 412.256 78.7037L426.13 41.8494ZM461.55 65.53H435.599C436.013 71.37 439.709 74.2984 446.646 74.2984C451.077 74.2984 454.967 73.2519 458.326 71.159V80.13C454.613 82.1132 449.777 83.109 443.811 83.109C437.312 83.109 432.265 81.3115 428.67 77.6994C425.084 74.1043 423.286 69.0661 423.286 62.6269C423.286 55.943 425.219 50.6432 429.109 46.7358C432.991 42.8284 437.751 40.8874 443.422 40.8874C449.288 40.8874 453.845 42.6258 457.052 46.1113C461.77 51.2339 461.719 56.1962 461.424 62.0699C461.364 63.1755 461.457 64.2135 461.55 65.53ZM450.351 57.8925C450.351 52.1369 448.013 49.2507 443.338 49.2507C441.355 49.2507 439.625 50.0693 438.173 51.7234C436.713 53.3775 435.835 55.4451 435.515 57.9009H450.351V57.8925ZM500 65.53V60.2892C500 54.3142 498.388 49.5798 495.181 46.0859C491.974 42.609 487.417 40.862 481.551 40.862C475.889 40.862 471.12 42.8115 467.238 46.7105C463.348 50.6178 461.415 55.9177 461.415 62.6016C461.415 69.0492 463.213 74.079 466.799 77.6741C470.395 81.2861 475.441 83.0837 481.94 83.0837C487.898 83.0837 492.734 82.0879 496.455 80.1046V71.159C493.097 73.2519 489.206 74.2984 484.775 74.2984C477.838 74.2984 474.142 71.3784 473.728 65.53H500ZM488.48 57.8925H473.644C473.964 55.4367 474.842 53.369 476.302 51.7149C477.754 50.0693 479.484 49.2422 481.467 49.2422C486.143 49.2507 488.48 52.1369 488.48 57.8925Z" fill="#374E6E"></path><path fill-rule="evenodd" clip-rule="evenodd" d="M177.337 131.653V106.191H182.325L192.806 123.256V106.191H197.575V131.653H192.426L182.105 114.918V131.653H177.337ZM234.666 131.653H229.113L226.91 125.855H216.698L214.58 131.653H209.128L219.011 106.191H224.462L234.666 131.653ZM225.239 121.551L221.703 112.124L218.268 121.551H225.239ZM249.992 131.653L240.885 106.191H246.455L252.92 125.036L259.123 106.191H264.6L255.545 131.653H249.992ZM275.732 131.653V106.191H280.888V131.653H275.732ZM306.333 122.293V117.989H317.397V128.15C316.325 129.197 314.764 130.117 312.722 130.918C310.679 131.712 308.612 132.108 306.519 132.108C303.86 132.108 301.539 131.551 299.556 130.429C297.581 129.306 296.096 127.703 295.1 125.619C294.104 123.542 293.606 121.264 293.606 118.825C293.606 116.167 294.163 113.812 295.269 111.744C296.383 109.685 298.003 108.09 300.147 106.993C301.784 106.149 303.81 105.727 306.24 105.727C309.396 105.727 311.869 106.394 313.65 107.719C315.422 109.052 316.57 110.884 317.076 113.23L311.954 114.192C311.599 112.943 310.924 111.947 309.928 111.221C308.941 110.495 307.709 110.132 306.232 110.132C303.987 110.132 302.206 110.841 300.881 112.276C299.556 113.702 298.898 115.821 298.898 118.622C298.898 121.652 299.565 123.922 300.906 125.433C302.248 126.944 304.004 127.703 306.181 127.703C307.253 127.703 308.333 127.492 309.413 127.07C310.494 126.648 311.422 126.133 312.198 125.526V122.293H306.333ZM353.796 131.653H348.243L346.04 125.855H335.829L333.71 131.653H328.258L338.149 106.191H343.601L353.796 131.653ZM344.378 121.551L340.842 112.124L337.407 121.551H344.378ZM368.337 131.653V110.495H360.801V106.191H381.005V110.495H373.502V131.653H368.337ZM391.334 119.07C391.334 116.47 391.723 114.293 392.499 112.529C393.073 111.23 393.866 110.065 394.871 109.035C395.875 108.006 396.972 107.238 398.162 106.74C399.749 106.073 401.58 105.736 403.656 105.736C407.411 105.736 410.416 106.9 412.669 109.229C414.923 111.567 416.045 114.808 416.045 118.96C416.045 123.078 414.923 126.302 412.686 128.631C410.45 130.961 407.454 132.125 403.715 132.125C399.926 132.125 396.913 130.969 394.676 128.657C392.457 126.327 391.334 123.137 391.334 119.07ZM396.634 118.901C396.634 121.787 397.301 123.973 398.643 125.467C399.976 126.952 401.673 127.703 403.723 127.703C405.783 127.703 407.462 126.96 408.787 125.484C410.104 123.998 410.762 121.787 410.762 118.825C410.762 115.905 410.121 113.719 408.838 112.284C407.555 110.841 405.859 110.124 403.732 110.124C401.614 110.124 399.9 110.85 398.601 112.301C397.284 113.77 396.634 115.964 396.634 118.901ZM428.772 131.653V106.191H439.599C442.317 106.191 444.3 106.419 445.532 106.875C446.773 107.331 447.752 108.141 448.494 109.314C449.237 110.487 449.608 111.82 449.608 113.323C449.608 115.238 449.051 116.816 447.929 118.057C446.807 119.306 445.136 120.082 442.908 120.411C444.013 121.053 444.933 121.77 445.642 122.547C446.368 123.323 447.338 124.707 448.562 126.682L451.668 131.653H445.515L441.827 126.091C440.502 124.116 439.599 122.867 439.11 122.353C438.62 121.846 438.106 121.492 437.565 121.298C437.017 121.112 436.148 121.011 434.966 121.011H433.928V131.653H428.772ZM433.928 116.96H437.734C440.198 116.96 441.734 116.85 442.351 116.648C442.958 116.437 443.448 116.074 443.794 115.567C444.14 115.061 444.317 114.42 444.317 113.652C444.317 112.791 444.089 112.107 443.633 111.576C443.178 111.044 442.528 110.715 441.701 110.58C441.279 110.521 440.03 110.487 437.954 110.487H433.936V116.96H433.928Z" fill="#374E6E"></path><path d="M86.8582 71.1346L83.8116 57.6149L79.0011 36.2382L74.1822 57.6149L71.1356 71.1346L57.6157 74.1812L36.2387 79L57.6157 83.8104L71.1356 86.8569L74.1822 100.377L79.0011 121.762L83.8116 100.377L86.8582 86.8569L100.378 83.8104L121.763 79L100.378 74.1812L86.8582 71.1346Z" fill="#5AA84C"></path><path d="M138.17 88.3254H157.445C157.808 85.2619 157.994 82.1563 157.994 78.9916C157.994 35.369 122.624 0 79.0011 0C35.3695 0 0 35.369 0 79C0 122.631 35.3695 158 79.0011 158C108.539 158 134.245 141.763 147.799 117.753L126.776 115.112C116.489 128.707 100.547 137.78 82.4444 138.809L79.0011 153.78L75.5578 138.809C47.2099 137.206 24.1367 115.888 19.8241 88.3423H45.3533L21.993 79L45.3533 69.6662H19.8241C24.1367 42.1204 47.2015 20.8112 75.5578 19.1993L79.0011 5.51084L82.4444 19.1993C110.792 20.8028 133.866 42.1204 138.178 69.6662H112.649L135.731 79L112.649 88.3338H119.384H138.17V88.3254Z" fill="#5AA84C"></path></svg>